<svg xmlns="http://www.w3.org/2000/svg" xmlns:xlink="http://www.w3.org/1999/xlink" width="500" zoomAndPan="magnify" viewBox="0 0 375 374.999991" height="500" preserveAspectRatio="xMidYMid meet" version="1.0"><defs><g/><clipPath id="83b0bb878d"><path d="M 227 110.164062 L 256 110.164062 L 256 113 L 227 113 Z M 227 110.164062 " clip-rule="nonzero"/></clipPath><clipPath id="8b6ddd4353"><path d="M 257 110.164062 L 286 110.164062 L 286 113 L 257 113 Z M 257 110.164062 " clip-rule="nonzero"/></clipPath><clipPath id="aeae37b8e4"><path d="M 166 110.164062 L 195 110.164062 L 195 113 L 166 113 Z M 166 110.164062 " clip-rule="nonzero"/></clipPath><clipPath id="c219c96b63"><path d="M 136.003906 110.164062 L 165 110.164062 L 165 113 L 136.003906 113 Z M 136.003906 110.164062 " clip-rule="nonzero"/></clipPath><clipPath id="1bdfe7cdc5"><path d="M 205 135 L 217 135 L 217 146.164062 L 205 146.164062 Z M 205 135 " clip-rule="nonzero"/></clipPath><clipPath id="5d30e34d89"><path d="M 241 169 L 267 169 L 267 190.976562 L 241 190.976562 Z M 241 169 " clip-rule="nonzero"/></clipPath><clipPath id="4e31cd87bd"><path d="M 248 145.976562 L 273 145.976562 L 273 168 L 248 168 Z M 248 145.976562 " clip-rule="nonzero"/></clipPath><clipPath id="537c02ab5b"><path d="M 253 153 L 279.691406 153 L 279.691406 175 L 253 175 Z M 253 153 " clip-rule="nonzero"/></clipPath><clipPath id="8b466d63dd"><path d="M 262 161 L 279 161 L 279 190.976562 L 262 190.976562 Z M 262 161 " clip-rule="nonzero"/></clipPath><clipPath id="33d76f2f81"><path d="M 234.691406 162 L 261 162 L 261 184 L 234.691406 184 Z M 234.691406 162 " clip-rule="nonzero"/></clipPath><clipPath id="813ad977f1"><path d="M 18 187.5 L 27 187.5 L 27 199.5 L 18 199.5 Z M 18 187.5 " clip-rule="nonzero"/></clipPath><clipPath id="e1cf35c89e"><path d="M 348 187.5 L 358 187.5 L 358 199.5 L 348 199.5 Z M 348 187.5 " clip-rule="nonzero"/></clipPath><clipPath id="6fc047b73c"><path d="M 18 97.957031 L 27 97.957031 L 27 109.957031 L 18 109.957031 Z M 18 97.957031 " clip-rule="nonzero"/></clipPath><clipPath id="efd3124d8d"><path d="M 348 97.957031 L 358 97.957031 L 358 109.957031 L 348 109.957031 Z M 348 97.957031 " clip-rule="nonzero"/></clipPath></defs><g clip-path="url(#83b0bb878d)"><path fill="#000000" d="M 241.175781 112.691406 C 248.855469 112.691406 255.085938 112.125 255.085938 111.429688 C 255.085938 110.734375 248.855469 110.167969 241.175781 110.167969 C 233.496094 110.167969 227.273438 110.734375 227.273438 111.429688 C 227.273438 112.125 233.496094 112.691406 241.175781 112.691406 " fill-opacity="1" fill-rule="nonzero"/></g><g clip-path="url(#8b6ddd4353)"><path fill="#000000" d="M 271.851562 110.167969 C 264.171875 110.167969 257.945312 110.734375 257.945312 111.429688 C 257.945312 112.125 264.171875 112.691406 271.851562 112.691406 C 279.535156 112.691406 285.757812 112.125 285.757812 111.429688 C 285.757812 110.734375 279.535156 110.167969 271.851562 110.167969 " fill-opacity="1" fill-rule="nonzero"/></g><path fill="#000000" d="M 256.464844 118.40625 C 255.183594 118.40625 254.148438 119.449219 254.148438 120.734375 L 254.148438 121.96875 L 230.773438 121.96875 C 227.230469 121.96875 223.714844 121.457031 220.289062 120.535156 C 218.074219 119.941406 214.765625 119.5625 211.070312 119.5625 C 207.371094 119.5625 204.0625 119.941406 201.847656 120.535156 C 198.425781 121.457031 194.90625 121.96875 191.363281 121.96875 L 167.988281 121.96875 L 167.988281 120.734375 C 167.988281 119.449219 166.953125 118.40625 165.675781 118.40625 C 164.394531 118.40625 163.359375 119.449219 163.359375 120.734375 L 163.359375 127.351562 L 193.574219 127.351562 C 196.09375 127.351562 198.132812 129.40625 198.132812 131.9375 C 200.320312 131.9375 202.199219 133.269531 203.007812 135.171875 C 204.34375 132.023438 207.453125 129.8125 211.070312 129.8125 C 214.683594 129.8125 217.792969 132.023438 219.128906 135.171875 C 219.9375 133.269531 221.816406 131.9375 224.003906 131.9375 C 224.003906 129.40625 226.046875 127.351562 228.5625 127.351562 L 258.777344 127.351562 L 258.777344 120.734375 C 258.777344 119.449219 257.742188 118.40625 256.464844 118.40625 " fill-opacity="1" fill-rule="nonzero"/><g clip-path="url(#aeae37b8e4)"><path fill="#000000" d="M 180.828125 112.746094 C 188.507812 112.746094 194.734375 112.179688 194.734375 111.484375 C 194.734375 110.789062 188.507812 110.226562 180.828125 110.226562 C 173.148438 110.226562 166.921875 110.789062 166.921875 111.484375 C 166.921875 112.179688 173.148438 112.746094 180.828125 112.746094 " fill-opacity="1" fill-rule="nonzero"/></g><g clip-path="url(#c219c96b63)"><path fill="#000000" d="M 164.058594 111.484375 C 164.058594 110.789062 157.832031 110.226562 150.152344 110.226562 C 142.472656 110.226562 136.246094 110.789062 136.246094 111.484375 C 136.246094 112.179688 142.472656 112.746094 150.152344 112.746094 C 157.832031 112.746094 164.058594 112.179688 164.058594 111.484375 " fill-opacity="1" fill-rule="nonzero"/></g><path fill="#000000" d="M 211.070312 130.9375 C 206.757812 130.9375 203.265625 134.449219 203.265625 138.78125 C 203.265625 141.644531 204.792969 144.148438 207.070312 145.519531 C 205.257812 144.246094 204.066406 142.136719 204.066406 139.742188 C 204.066406 135.855469 207.203125 132.703125 211.070312 132.703125 C 214.933594 132.703125 218.070312 135.855469 218.070312 139.742188 C 218.070312 142.136719 216.882812 144.246094 215.066406 145.519531 C 217.34375 144.148438 218.871094 141.644531 218.871094 138.78125 C 218.871094 134.449219 215.378906 130.9375 211.070312 130.9375 " fill-opacity="1" fill-rule="nonzero"/><g clip-path="url(#1bdfe7cdc5)"><path fill="#000000" d="M 211.070312 146.164062 C 207.871094 146.164062 205.273438 143.554688 205.273438 140.339844 C 205.273438 138.214844 206.410156 136.355469 208.101562 135.335938 C 206.753906 136.28125 205.871094 137.847656 205.871094 139.625 C 205.871094 142.511719 208.199219 144.851562 211.070312 144.851562 C 213.941406 144.851562 216.265625 142.511719 216.265625 139.625 C 216.265625 137.847656 215.382812 136.28125 214.035156 135.335938 C 215.726562 136.355469 216.863281 138.214844 216.863281 140.339844 C 216.863281 143.554688 214.269531 146.164062 211.070312 146.164062 " fill-opacity="1" fill-rule="nonzero"/></g><path fill="#000000" d="M 169.320312 115.335938 C 169.320312 117.464844 167.605469 119.1875 165.492188 119.1875 C 163.375 119.1875 161.660156 117.464844 161.660156 115.335938 C 161.660156 113.210938 163.375 111.484375 165.492188 111.484375 C 167.605469 111.484375 169.320312 113.210938 169.320312 115.335938 " fill-opacity="1" fill-rule="nonzero"/><path fill="#000000" d="M 260.347656 115.335938 C 260.347656 117.464844 258.628906 119.1875 256.515625 119.1875 C 254.398438 119.1875 252.683594 117.464844 252.683594 115.335938 C 252.683594 113.210938 254.398438 111.484375 256.515625 111.484375 C 258.628906 111.484375 260.347656 113.210938 260.347656 115.335938 " fill-opacity="1" fill-rule="nonzero"/><g clip-path="url(#5d30e34d89)"><path fill="#000000" d="M 265.75 178.621094 C 266.109375 174.871094 266.046875 171.347656 265.984375 169.609375 L 261.9375 176.613281 L 261.945312 176.621094 C 261.941406 176.621094 261.9375 176.628906 261.925781 176.632812 L 261.914062 176.65625 L 261.890625 176.65625 C 261.390625 176.988281 257.542969 179.507812 252.980469 181.589844 C 250.117188 182.902344 247.53125 183.789062 245.296875 184.226562 C 243.855469 184.507812 242.554688 184.605469 241.40625 184.511719 C 245.46875 188.511719 251.039062 190.976562 257.1875 190.976562 C 258.878906 190.976562 260.523438 190.789062 262.105469 190.4375 C 262.9375 189.453125 263.648438 188.113281 264.226562 186.429688 C 264.945312 184.328125 265.457031 181.703125 265.75 178.621094 Z M 265.75 178.621094 " fill-opacity="1" fill-rule="nonzero"/></g><g clip-path="url(#4e31cd87bd)"><path fill="#000000" d="M 252.464844 160.296875 L 252.488281 160.296875 C 252.984375 159.964844 256.835938 157.445312 261.394531 155.363281 C 264.261719 154.050781 266.847656 153.164062 269.078125 152.726562 C 270.519531 152.445312 271.820312 152.347656 272.96875 152.441406 C 268.910156 148.441406 263.335938 145.976562 257.1875 145.976562 C 255.5 145.976562 253.855469 146.164062 252.269531 146.515625 C 251.4375 147.5 250.730469 148.839844 250.152344 150.523438 C 249.433594 152.625 248.917969 155.25 248.625 158.332031 C 248.269531 162.082031 248.328125 165.605469 248.394531 167.34375 L 252.4375 160.339844 L 252.433594 160.332031 C 252.433594 160.332031 252.441406 160.328125 252.449219 160.320312 Z M 252.464844 160.296875 " fill-opacity="1" fill-rule="nonzero"/></g><g clip-path="url(#537c02ab5b)"><path fill="#000000" d="M 269.21875 153.40625 C 267.039062 153.835938 264.507812 154.703125 261.691406 155.988281 C 258.269531 157.554688 255.246094 159.371094 253.773438 160.296875 L 261.863281 160.296875 L 261.867188 160.285156 C 261.867188 160.285156 261.875 160.289062 261.886719 160.296875 L 261.914062 160.296875 L 261.925781 160.316406 C 262.460938 160.582031 266.566406 162.65625 270.652344 165.5625 C 273.21875 167.390625 275.28125 169.183594 276.773438 170.898438 C 277.742188 172.011719 278.476562 173.089844 278.972656 174.132812 C 279.441406 172.328125 279.691406 170.429688 279.691406 168.476562 C 279.691406 162.597656 277.433594 157.246094 273.742188 153.238281 C 272.476562 153.007812 270.964844 153.066406 269.21875 153.40625 Z M 269.21875 153.40625 " fill-opacity="1" fill-rule="nonzero"/></g><g clip-path="url(#8b466d63dd)"><path fill="#000000" d="M 276.253906 171.359375 C 274.792969 169.6875 272.777344 167.929688 270.253906 166.132812 C 267.183594 163.949219 264.101562 162.238281 262.566406 161.425781 L 266.609375 168.429688 L 266.621094 168.429688 C 266.621094 168.433594 266.621094 168.441406 266.621094 168.453125 L 266.636719 168.476562 L 266.625 168.496094 C 266.660156 169.09375 266.917969 173.6875 266.441406 178.675781 C 266.144531 181.816406 265.621094 184.496094 264.882812 186.648438 C 264.40625 188.042969 263.835938 189.21875 263.179688 190.167969 C 270.542969 188.140625 276.394531 182.460938 278.664062 175.199219 C 278.230469 173.988281 277.425781 172.703125 276.253906 171.359375 Z M 276.253906 171.359375 " fill-opacity="1" fill-rule="nonzero"/></g><g clip-path="url(#33d76f2f81)"><path fill="#000000" d="M 245.160156 183.542969 C 247.335938 183.117188 249.871094 182.25 252.683594 180.960938 C 256.109375 179.398438 259.132812 177.582031 260.605469 176.65625 L 252.515625 176.65625 L 252.511719 176.667969 C 252.511719 176.664062 252.503906 176.664062 252.492188 176.65625 L 252.464844 176.65625 L 252.453125 176.636719 C 251.917969 176.371094 247.8125 174.296875 243.726562 171.390625 C 241.160156 169.5625 239.097656 167.765625 237.601562 166.050781 C 236.632812 164.941406 235.902344 163.863281 235.40625 162.820312 C 234.9375 164.625 234.6875 166.523438 234.6875 168.476562 C 234.6875 174.355469 236.945312 179.707031 240.636719 183.714844 C 241.902344 183.941406 243.414062 183.886719 245.160156 183.542969 Z M 245.160156 183.542969 " fill-opacity="1" fill-rule="nonzero"/></g><path fill="#000000" d="M 238.125 165.59375 C 239.582031 167.265625 241.601562 169.023438 244.121094 170.820312 C 247.191406 173.003906 250.273438 174.714844 251.8125 175.527344 L 247.765625 168.523438 L 247.757812 168.523438 C 247.757812 168.519531 247.757812 168.515625 247.753906 168.5 L 247.742188 168.476562 L 247.753906 168.457031 C 247.714844 167.863281 247.457031 163.265625 247.933594 158.277344 C 248.230469 155.140625 248.757812 152.457031 249.492188 150.304688 C 249.972656 148.910156 250.539062 147.734375 251.195312 146.785156 C 243.832031 148.8125 237.980469 154.492188 235.710938 161.753906 C 236.144531 162.964844 236.953125 164.25 238.125 165.59375 Z M 238.125 165.59375 " fill-opacity="1" fill-rule="nonzero"/><g fill="#000000" fill-opacity="1"><g transform="translate(187.499992, 207.790681)"><g/></g></g><g fill="#000000" fill-opacity="1"><g transform="translate(22.066409, 185.390642)"><g><path d="M 19.90625 0 L 4.1875 0 L 4.1875 -37.484375 L 29.75 -37.484375 C 35.863281 -37.484375 40.796875 -37.023438 44.546875 -36.109375 C 48.304688 -35.203125 51.046875 -33.765625 52.765625 -31.796875 C 54.492188 -29.835938 55.359375 -27.285156 55.359375 -24.140625 C 55.359375 -21.003906 54.492188 -18.457031 52.765625 -16.5 C 51.046875 -14.539062 48.304688 -13.101562 44.546875 -12.1875 C 40.796875 -11.269531 35.863281 -10.8125 29.75 -10.8125 L 19.90625 -10.8125 Z M 19.90625 -20.0625 L 28.890625 -20.09375 C 31.398438 -20.09375 33.375 -20.191406 34.8125 -20.390625 C 36.257812 -20.585938 37.328125 -20.867188 38.015625 -21.234375 C 38.703125 -21.597656 39.140625 -22.03125 39.328125 -22.53125 C 39.523438 -23.03125 39.625 -23.566406 39.625 -24.140625 C 39.625 -24.734375 39.523438 -25.273438 39.328125 -25.765625 C 39.140625 -26.265625 38.703125 -26.695312 38.015625 -27.0625 C 37.328125 -27.425781 36.257812 -27.707031 34.8125 -27.90625 C 33.375 -28.113281 31.398438 -28.21875 28.890625 -28.21875 L 19.90625 -28.21875 Z M 19.90625 -20.0625 "/></g></g></g><g fill="#000000" fill-opacity="1"><g transform="translate(79.506797, 185.390642)"><g/></g></g><g fill="#000000" fill-opacity="1"><g transform="translate(92.776336, 185.390642)"><g><path d="M 19.90625 0 L 4.1875 0 L 4.1875 -37.484375 L 19.90625 -37.484375 Z M 19.90625 0 "/></g></g></g><g fill="#000000" fill-opacity="1"><g transform="translate(116.860025, 185.390642)"><g/></g></g><g fill="#000000" fill-opacity="1"><g transform="translate(130.129563, 185.390642)"><g><path d="M 54.015625 0 L 38.09375 0 L 27.21875 -11.5 L 16.328125 0 L 0.390625 0 L 19.90625 -19.171875 L 0.390625 -37.453125 L 16.328125 -37.453125 L 27.21875 -26.71875 L 38.09375 -37.453125 L 54.015625 -37.453125 L 34.515625 -19.171875 Z M 54.015625 0 "/></g></g></g><g fill="#000000" fill-opacity="1"><g transform="translate(184.539899, 185.390642)"><g/></g></g><g fill="#000000" fill-opacity="1"><g transform="translate(197.809438, 185.390642)"><g><path d="M 19.90625 0 L 4.1875 0 L 4.1875 -37.484375 L 19.90625 -37.484375 Z M 19.90625 0 "/></g></g></g><g fill="#000000" fill-opacity="1"><g transform="translate(221.882802, 185.390642)"><g/></g></g><g fill="#000000" fill-opacity="1"><g transform="translate(235.152341, 185.390642)"><g/></g></g><g fill="#000000" fill-opacity="1"><g transform="translate(248.421879, 185.390642)"><g/></g></g><g fill="#000000" fill-opacity="1"><g transform="translate(261.691418, 185.390642)"><g/></g></g><g fill="#000000" fill-opacity="1"><g transform="translate(274.960956, 185.390642)"><g/></g></g><g fill="#000000" fill-opacity="1"><g transform="translate(288.222646, 185.390642)"><g><path d="M 59.796875 0 L 41.09375 0 L 19.90625 -25.359375 L 19.90625 0 L 4.1875 0 L 4.1875 -37.484375 L 22.890625 -37.484375 L 44.0625 -12.25 L 44.0625 -37.484375 L 59.796875 -37.484375 Z M 59.796875 0 "/></g></g></g><path fill="#000000" d="M 27.734375 196.121094 C 27.734375 194.398438 27.734375 192.742188 27.734375 191.085938 C 34.394531 192.398438 41.121094 191.636719 47.847656 191.707031 C 54.648438 191.777344 61.445312 191.707031 68.316406 191.707031 C 107.703125 191.707031 147.023438 191.707031 186.410156 191.707031 C 221.945312 191.707031 257.480469 191.707031 293.015625 191.707031 C 309.484375 191.707031 325.886719 191.707031 342.355469 191.636719 C 344.179688 191.636719 345.929688 191.429688 347.894531 191.292969 C 347.894531 192.671875 347.894531 194.328125 347.894531 195.707031 C 341.023438 194.878906 334.085938 195.363281 327.21875 195.292969 C 291.683594 195.222656 256.21875 195.292969 220.683594 195.292969 C 212.273438 195.292969 203.933594 195.15625 195.523438 195.15625 C 153.679688 195.15625 111.910156 195.222656 70.066406 195.292969 C 62.21875 195.292969 54.367188 195.15625 46.519531 195.15625 C 41.402344 195.15625 36.214844 195.222656 31.097656 195.363281 C 30.046875 195.363281 28.925781 195.84375 27.734375 196.121094 Z M 27.734375 196.121094 " fill-opacity="1" fill-rule="nonzero"/><g clip-path="url(#813ad977f1)"><path fill="#000000" d="M 18.203125 193.570312 C 20.515625 192.121094 21.566406 190.257812 20.515625 187.5 C 22.6875 188.257812 24.582031 188.878906 26.683594 189.570312 C 26.683594 192.121094 26.683594 194.808594 26.683594 197.429688 C 24.71875 198.121094 22.757812 198.808594 20.65625 199.5 C 21.425781 196.949219 20.65625 194.878906 18.203125 193.570312 Z M 18.203125 193.570312 " fill-opacity="1" fill-rule="nonzero"/></g><g clip-path="url(#e1cf35c89e)"><path fill="#000000" d="M 355.113281 187.5 C 354.199219 190.257812 355.113281 192.121094 357.425781 193.5 C 355.042969 194.808594 354.480469 196.878906 354.621094 199.363281 C 353.007812 198.808594 351.46875 198.328125 349.996094 197.707031 C 349.503906 197.429688 348.945312 196.671875 348.875 196.121094 C 348.734375 193.984375 348.804688 191.84375 348.804688 189.636719 C 350.90625 188.949219 352.867188 188.257812 355.113281 187.5 Z M 355.113281 187.5 " fill-opacity="1" fill-rule="nonzero"/></g><path fill="#000000" d="M 27.734375 106.578125 C 27.734375 104.855469 27.734375 103.199219 27.734375 101.542969 C 34.394531 102.855469 41.121094 102.097656 47.847656 102.164062 C 54.648438 102.234375 61.445312 102.164062 68.316406 102.164062 C 107.703125 102.164062 147.023438 102.164062 186.410156 102.164062 C 221.945312 102.164062 257.480469 102.164062 293.015625 102.164062 C 309.484375 102.164062 325.886719 102.164062 342.355469 102.097656 C 344.179688 102.097656 345.929688 101.890625 347.894531 101.75 C 347.894531 103.128906 347.894531 104.785156 347.894531 106.164062 C 341.023438 105.335938 334.085938 105.820312 327.21875 105.75 C 291.683594 105.683594 256.21875 105.75 220.683594 105.75 C 212.273438 105.75 203.933594 105.613281 195.523438 105.613281 C 153.679688 105.613281 111.910156 105.683594 70.066406 105.75 C 62.21875 105.75 54.367188 105.613281 46.519531 105.613281 C 41.402344 105.613281 36.214844 105.683594 31.097656 105.820312 C 30.046875 105.820312 28.925781 106.304688 27.734375 106.578125 Z M 27.734375 106.578125 " fill-opacity="1" fill-rule="nonzero"/><g clip-path="url(#6fc047b73c)"><path fill="#000000" d="M 18.203125 104.027344 C 20.515625 102.578125 21.566406 100.71875 20.515625 97.957031 C 22.6875 98.71875 24.582031 99.335938 26.683594 100.027344 C 26.683594 102.578125 26.683594 105.269531 26.683594 107.890625 C 24.71875 108.578125 22.757812 109.269531 20.65625 109.957031 C 21.425781 107.40625 20.65625 105.335938 18.203125 104.027344 Z M 18.203125 104.027344 " fill-opacity="1" fill-rule="nonzero"/></g><g clip-path="url(#efd3124d8d)"><path fill="#000000" d="M 355.113281 97.957031 C 354.199219 100.71875 355.113281 102.578125 357.425781 103.957031 C 355.042969 105.269531 354.480469 107.335938 354.621094 109.820312 C 353.007812 109.269531 351.46875 108.785156 349.996094 108.164062 C 349.503906 107.890625 348.945312 107.128906 348.875 106.578125 C 348.734375 104.441406 348.804688 102.304688 348.804688 100.097656 C 350.90625 99.40625 352.867188 98.71875 355.113281 97.957031 Z M 355.113281 97.957031 " fill-opacity="1" fill-rule="nonzero"/></g></svg>