<svg xmlns="http://www.w3.org/2000/svg" xmlns:xlink="http://www.w3.org/1999/xlink" width="500" zoomAndPan="magnify" viewBox="0 0 375 112.499997" height="150" preserveAspectRatio="xMidYMid meet" version="1.0"><defs><g/><clipPath id="ede27d08a6"><path d="M 218 21.832031 L 241 21.832031 L 241 24 L 218 24 Z M 218 21.832031 " clip-rule="nonzero"/></clipPath><clipPath id="507faf2408"><path d="M 242 21.832031 L 265 21.832031 L 265 24 L 242 24 Z M 242 21.832031 " clip-rule="nonzero"/></clipPath><clipPath id="092a16e3fc"><path d="M 170 21.832031 L 193 21.832031 L 193 24 L 170 24 Z M 170 21.832031 " clip-rule="nonzero"/></clipPath><clipPath id="f56dacba90"><path d="M 146.476562 21.832031 L 169 21.832031 L 169 24 L 146.476562 24 Z M 146.476562 21.832031 " clip-rule="nonzero"/></clipPath><clipPath id="a207dd2bdd"><path d="M 201 41 L 211 41 L 211 50.203125 L 201 50.203125 Z M 201 41 " clip-rule="nonzero"/></clipPath><clipPath id="98ab53d91d"><path d="M 237 70 L 259 70 L 259 88.917969 L 237 88.917969 Z M 237 70 " clip-rule="nonzero"/></clipPath><clipPath id="fa672de003"><path d="M 243 50.089844 L 265 50.089844 L 265 69 L 243 69 Z M 243 50.089844 " clip-rule="nonzero"/></clipPath><clipPath id="7e1bf438b0"><path d="M 248 56 L 270.503906 56 L 270.503906 75 L 248 75 Z M 248 56 " clip-rule="nonzero"/></clipPath><clipPath id="7ee65464fd"><path d="M 255 63 L 270 63 L 270 88.917969 L 255 88.917969 Z M 255 63 " clip-rule="nonzero"/></clipPath><clipPath id="0caab12dfb"><path d="M 231.679688 64 L 255 64 L 255 83 L 231.679688 83 Z M 231.679688 64 " clip-rule="nonzero"/></clipPath><clipPath id="b226696649"><path d="M 232 50.089844 L 247 50.089844 L 247 76 L 232 76 Z M 232 50.089844 " clip-rule="nonzero"/></clipPath><clipPath id="d8703942f0"><path d="M 3 4.128906 L 13 4.128906 L 13 17.570312 L 3 17.570312 Z M 3 4.128906 " clip-rule="nonzero"/></clipPath><clipPath id="eac8f14765"><path d="M 362 4.128906 L 372 4.128906 L 372 17.570312 L 362 17.570312 Z M 362 4.128906 " clip-rule="nonzero"/></clipPath><clipPath id="86eb31e276"><path d="M 3 98.78125 L 13 98.78125 L 13 112.003906 L 3 112.003906 Z M 3 98.78125 " clip-rule="nonzero"/></clipPath><clipPath id="f3505b9e45"><path d="M 362 98.78125 L 372 98.78125 L 372 112.003906 L 362 112.003906 Z M 362 98.78125 " clip-rule="nonzero"/></clipPath></defs><g clip-path="url(#ede27d08a6)"><path fill="#000000" d="M 229.71875 23.820312 C 235.796875 23.820312 240.722656 23.375 240.722656 22.828125 C 240.722656 22.277344 235.796875 21.832031 229.71875 21.832031 C 223.640625 21.832031 218.710938 22.277344 218.710938 22.828125 C 218.710938 23.375 223.640625 23.820312 229.71875 23.820312 " fill-opacity="1" fill-rule="nonzero"/></g><g clip-path="url(#507faf2408)"><path fill="#000000" d="M 253.996094 21.832031 C 247.917969 21.832031 242.988281 22.277344 242.988281 22.828125 C 242.988281 23.375 247.917969 23.820312 253.996094 23.820312 C 260.074219 23.820312 265 23.375 265 22.828125 C 265 22.277344 260.074219 21.832031 253.996094 21.832031 " fill-opacity="1" fill-rule="nonzero"/></g><path fill="#000000" d="M 241.816406 28.328125 C 240.804688 28.328125 239.984375 29.148438 239.984375 30.160156 L 239.984375 31.132812 L 221.484375 31.132812 C 218.679688 31.132812 215.894531 30.730469 213.1875 30.003906 C 211.433594 29.535156 208.8125 29.238281 205.886719 29.238281 C 202.964844 29.238281 200.34375 29.535156 198.589844 30.003906 C 195.882812 30.730469 193.097656 31.132812 190.292969 31.132812 L 171.792969 31.132812 L 171.792969 30.160156 C 171.792969 29.148438 170.972656 28.328125 169.960938 28.328125 C 168.949219 28.328125 168.128906 29.148438 168.128906 30.160156 L 168.128906 35.378906 L 192.042969 35.378906 C 194.035156 35.378906 195.652344 36.996094 195.652344 38.988281 C 197.382812 38.988281 198.871094 40.039062 199.511719 41.542969 C 200.566406 39.058594 203.027344 37.316406 205.886719 37.316406 C 208.75 37.316406 211.210938 39.058594 212.269531 41.539062 C 212.90625 40.039062 214.394531 38.988281 216.125 38.988281 C 216.125 36.996094 217.742188 35.378906 219.734375 35.378906 L 243.648438 35.378906 L 243.648438 30.160156 C 243.648438 29.148438 242.828125 28.328125 241.816406 28.328125 " fill-opacity="1" fill-rule="nonzero"/><g clip-path="url(#092a16e3fc)"><path fill="#000000" d="M 181.953125 23.863281 C 188.035156 23.863281 192.960938 23.417969 192.960938 22.871094 C 192.960938 22.320312 188.035156 21.878906 181.953125 21.878906 C 175.875 21.878906 170.949219 22.320312 170.949219 22.871094 C 170.949219 23.417969 175.875 23.863281 181.953125 23.863281 " fill-opacity="1" fill-rule="nonzero"/></g><g clip-path="url(#f56dacba90)"><path fill="#000000" d="M 168.683594 22.871094 C 168.683594 22.320312 163.757812 21.878906 157.675781 21.878906 C 151.597656 21.878906 146.671875 22.320312 146.671875 22.871094 C 146.671875 23.417969 151.597656 23.863281 157.675781 23.863281 C 163.757812 23.863281 168.683594 23.417969 168.683594 22.871094 " fill-opacity="1" fill-rule="nonzero"/></g><path fill="#000000" d="M 205.886719 38.203125 C 202.476562 38.203125 199.714844 40.96875 199.714844 44.386719 C 199.714844 46.640625 200.921875 48.617188 202.726562 49.695312 C 201.289062 48.691406 200.347656 47.027344 200.347656 45.140625 C 200.347656 42.078125 202.828125 39.59375 205.886719 39.59375 C 208.949219 39.59375 211.429688 42.078125 211.429688 45.140625 C 211.429688 47.027344 210.488281 48.691406 209.050781 49.695312 C 210.855469 48.617188 212.066406 46.640625 212.066406 44.386719 C 212.066406 40.96875 209.300781 38.203125 205.886719 38.203125 " fill-opacity="1" fill-rule="nonzero"/><g clip-path="url(#a207dd2bdd)"><path fill="#000000" d="M 205.886719 50.203125 C 203.355469 50.203125 201.304688 48.148438 201.304688 45.613281 C 201.304688 43.9375 202.199219 42.472656 203.539062 41.671875 C 202.472656 42.414062 201.773438 43.648438 201.773438 45.050781 C 201.773438 47.324219 203.617188 49.167969 205.886719 49.167969 C 208.160156 49.167969 210.003906 47.324219 210.003906 45.050781 C 210.003906 43.648438 209.304688 42.414062 208.238281 41.671875 C 209.574219 42.472656 210.472656 43.9375 210.472656 45.613281 C 210.472656 48.148438 208.421875 50.203125 205.886719 50.203125 " fill-opacity="1" fill-rule="nonzero"/></g><path fill="#000000" d="M 172.847656 25.90625 C 172.847656 27.582031 171.492188 28.941406 169.816406 28.941406 C 168.140625 28.941406 166.785156 27.582031 166.785156 25.90625 C 166.785156 24.230469 168.140625 22.871094 169.816406 22.871094 C 171.492188 22.871094 172.847656 24.230469 172.847656 25.90625 " fill-opacity="1" fill-rule="nonzero"/><path fill="#000000" d="M 244.890625 25.90625 C 244.890625 27.582031 243.53125 28.941406 241.855469 28.941406 C 240.183594 28.941406 238.824219 27.582031 238.824219 25.90625 C 238.824219 24.230469 240.183594 22.871094 241.855469 22.871094 C 243.53125 22.871094 244.890625 24.230469 244.890625 25.90625 " fill-opacity="1" fill-rule="nonzero"/><g fill="#000000" fill-opacity="1"><g transform="translate(23.10838, 88.989153)"><g><path d="M 19.34375 0 L 4.0625 0 L 4.0625 -36.4375 L 28.921875 -36.4375 C 34.859375 -36.4375 39.648438 -35.988281 43.296875 -35.09375 C 46.953125 -34.207031 49.613281 -32.8125 51.28125 -30.90625 C 52.957031 -29.007812 53.796875 -26.53125 53.796875 -23.46875 C 53.796875 -20.414062 52.957031 -17.9375 51.28125 -16.03125 C 49.613281 -14.125 46.953125 -12.726562 43.296875 -11.84375 C 39.648438 -10.957031 34.859375 -10.515625 28.921875 -10.515625 L 19.34375 -10.515625 Z M 19.34375 -19.5 L 28.078125 -19.53125 C 30.515625 -19.53125 32.4375 -19.625 33.84375 -19.8125 C 35.25 -20.007812 36.285156 -20.285156 36.953125 -20.640625 C 37.617188 -20.992188 38.046875 -21.410156 38.234375 -21.890625 C 38.421875 -22.378906 38.515625 -22.90625 38.515625 -23.46875 C 38.515625 -24.039062 38.421875 -24.566406 38.234375 -25.046875 C 38.046875 -25.523438 37.617188 -25.941406 36.953125 -26.296875 C 36.285156 -26.660156 35.25 -26.9375 33.84375 -27.125 C 32.4375 -27.320312 30.515625 -27.421875 28.078125 -27.421875 L 19.34375 -27.421875 Z M 19.34375 -19.5 "/></g></g></g><g fill="#000000" fill-opacity="1"><g transform="translate(78.948719, 88.989153)"><g/></g></g><g fill="#000000" fill-opacity="1"><g transform="translate(91.848624, 88.989153)"><g><path d="M 19.34375 0 L 4.0625 0 L 4.0625 -36.4375 L 19.34375 -36.4375 Z M 19.34375 0 "/></g></g></g><g fill="#000000" fill-opacity="1"><g transform="translate(115.261442, 88.989153)"><g/></g></g><g fill="#000000" fill-opacity="1"><g transform="translate(128.161347, 88.989153)"><g><path d="M 52.515625 0 L 37.015625 0 L 26.453125 -11.171875 L 15.875 0 L 0.375 0 L 19.34375 -18.640625 L 0.375 -36.40625 L 15.875 -36.40625 L 26.453125 -25.96875 L 37.015625 -36.40625 L 52.515625 -36.40625 L 33.546875 -18.640625 Z M 52.515625 0 "/></g></g></g><g fill="#000000" fill-opacity="1"><g transform="translate(181.056039, 88.989153)"><g/></g></g><g fill="#000000" fill-opacity="1"><g transform="translate(193.955943, 88.989153)"><g><path d="M 19.34375 0 L 4.0625 0 L 4.0625 -36.4375 L 19.34375 -36.4375 Z M 19.34375 0 "/></g></g></g><g fill="#000000" fill-opacity="1"><g transform="translate(217.358725, 88.989153)"><g/></g></g><g fill="#000000" fill-opacity="1"><g transform="translate(230.258629, 88.989153)"><g/></g></g><g fill="#000000" fill-opacity="1"><g transform="translate(243.158534, 88.989153)"><g/></g></g><g fill="#000000" fill-opacity="1"><g transform="translate(256.058439, 88.989153)"><g/></g></g><g fill="#000000" fill-opacity="1"><g transform="translate(268.958343, 88.989153)"><g/></g></g><g fill="#000000" fill-opacity="1"><g transform="translate(281.850618, 88.989153)"><g><path d="M 58.125 0 L 39.9375 0 L 19.34375 -24.65625 L 19.34375 0 L 4.0625 0 L 4.0625 -36.4375 L 22.25 -36.4375 L 42.828125 -11.90625 L 42.828125 -36.4375 L 58.125 -36.4375 Z M 58.125 0 "/></g></g></g><g clip-path="url(#98ab53d91d)"><path fill="#000000" d="M 258.480469 78.253906 C 258.785156 75.019531 258.734375 71.980469 258.679688 70.480469 L 255.1875 76.523438 L 255.195312 76.53125 C 255.191406 76.53125 255.1875 76.535156 255.179688 76.539062 L 255.167969 76.5625 L 255.148438 76.5625 C 254.71875 76.847656 251.394531 79.019531 247.460938 80.820312 C 244.988281 81.949219 242.757812 82.714844 240.832031 83.09375 C 239.585938 83.335938 238.464844 83.417969 237.472656 83.339844 C 240.976562 86.789062 245.785156 88.917969 251.089844 88.917969 C 252.546875 88.917969 253.96875 88.753906 255.332031 88.449219 C 256.050781 87.601562 256.664062 86.445312 257.160156 84.992188 C 257.78125 83.179688 258.226562 80.914062 258.480469 78.253906 Z M 258.480469 78.253906 " fill-opacity="1" fill-rule="nonzero"/></g><g clip-path="url(#fa672de003)"><path fill="#000000" d="M 247.015625 62.441406 L 247.035156 62.441406 C 247.464844 62.160156 250.785156 59.984375 254.71875 58.1875 C 257.191406 57.054688 259.425781 56.289062 261.351562 55.914062 C 262.59375 55.667969 263.714844 55.585938 264.707031 55.664062 C 261.203125 52.21875 256.394531 50.089844 251.089844 50.089844 C 249.632812 50.089844 248.214844 50.25 246.847656 50.554688 C 246.128906 51.402344 245.519531 52.558594 245.019531 54.011719 C 244.398438 55.824219 243.957031 58.089844 243.703125 60.75 C 243.394531 63.984375 243.445312 67.027344 243.503906 68.527344 L 246.992188 62.480469 L 246.988281 62.472656 C 246.988281 62.472656 246.992188 62.46875 247.003906 62.464844 Z M 247.015625 62.441406 " fill-opacity="1" fill-rule="nonzero"/></g><g clip-path="url(#7e1bf438b0)"><path fill="#000000" d="M 261.46875 56.5 C 259.589844 56.867188 257.40625 57.617188 254.976562 58.726562 C 252.023438 60.078125 249.414062 61.644531 248.144531 62.445312 L 255.121094 62.445312 L 255.125 62.433594 C 255.128906 62.4375 255.132812 62.4375 255.144531 62.445312 L 255.167969 62.445312 L 255.175781 62.460938 C 255.636719 62.691406 259.183594 64.480469 262.707031 66.988281 C 264.921875 68.566406 266.699219 70.113281 267.992188 71.59375 C 268.824219 72.550781 269.457031 73.484375 269.886719 74.382812 C 270.289062 72.824219 270.503906 71.1875 270.503906 69.503906 C 270.503906 64.429688 268.558594 59.8125 265.375 56.351562 C 264.28125 56.15625 262.976562 56.207031 261.46875 56.5 Z M 261.46875 56.5 " fill-opacity="1" fill-rule="nonzero"/></g><g clip-path="url(#7ee65464fd)"><path fill="#000000" d="M 267.539062 71.988281 C 266.28125 70.546875 264.539062 69.03125 262.363281 67.480469 C 259.714844 65.597656 257.058594 64.121094 255.730469 63.417969 L 259.21875 69.464844 L 259.226562 69.464844 C 259.226562 69.464844 259.230469 69.472656 259.230469 69.480469 L 259.242188 69.503906 L 259.230469 69.519531 C 259.261719 70.035156 259.484375 73.996094 259.074219 78.304688 C 258.816406 81.011719 258.363281 83.324219 257.730469 85.183594 C 257.316406 86.386719 256.828125 87.398438 256.261719 88.21875 C 262.613281 86.46875 267.664062 81.570312 269.621094 75.304688 C 269.246094 74.257812 268.550781 73.148438 267.539062 71.988281 Z M 267.539062 71.988281 " fill-opacity="1" fill-rule="nonzero"/></g><g clip-path="url(#0caab12dfb)"><path fill="#000000" d="M 240.710938 82.503906 C 242.589844 82.136719 244.773438 81.386719 247.203125 80.277344 C 250.160156 78.925781 252.769531 77.359375 254.039062 76.5625 L 247.058594 76.5625 L 247.054688 76.570312 C 247.054688 76.570312 247.046875 76.566406 247.039062 76.5625 L 247.015625 76.5625 L 247.003906 76.542969 C 246.542969 76.3125 243 74.523438 239.476562 72.015625 C 237.257812 70.441406 235.480469 68.890625 234.191406 67.410156 C 233.355469 66.453125 232.722656 65.519531 232.296875 64.621094 C 231.890625 66.179688 231.675781 67.816406 231.675781 69.5 C 231.675781 74.574219 233.621094 79.191406 236.808594 82.652344 C 237.898438 82.847656 239.207031 82.800781 240.710938 82.503906 Z M 240.710938 82.503906 " fill-opacity="1" fill-rule="nonzero"/></g><g clip-path="url(#b226696649)"><path fill="#000000" d="M 234.640625 67.015625 C 235.898438 68.457031 237.640625 69.976562 239.816406 71.523438 C 242.464844 73.410156 245.125 74.882812 246.449219 75.585938 L 242.960938 69.542969 L 242.953125 69.542969 C 242.953125 69.539062 242.953125 69.535156 242.949219 69.523438 L 242.9375 69.503906 L 242.949219 69.488281 C 242.917969 68.972656 242.695312 65.007812 243.105469 60.703125 C 243.363281 57.996094 243.816406 55.679688 244.453125 53.824219 C 244.863281 52.621094 245.355469 51.605469 245.921875 50.785156 C 239.566406 52.535156 234.519531 57.4375 232.558594 63.699219 C 232.933594 64.746094 233.628906 65.855469 234.640625 67.015625 Z M 234.640625 67.015625 " fill-opacity="1" fill-rule="nonzero"/></g><g fill="#000000" fill-opacity="1"><g transform="translate(187.499992, 62.061374)"><g/></g></g><path fill="#000000" d="M 13.890625 13.785156 C 13.890625 11.855469 13.890625 10 13.890625 8.148438 C 21.113281 9.613281 28.414062 8.765625 35.710938 8.84375 C 43.085938 8.917969 50.464844 8.84375 57.914062 8.84375 C 100.648438 8.84375 143.304688 8.84375 186.039062 8.84375 C 224.589844 8.84375 263.144531 8.84375 301.695312 8.84375 C 319.5625 8.84375 337.355469 8.84375 355.226562 8.765625 C 357.203125 8.765625 359.101562 8.53125 361.230469 8.378906 C 361.230469 9.921875 361.230469 11.777344 361.230469 13.320312 C 353.78125 12.394531 346.253906 12.9375 338.800781 12.859375 C 300.25 12.78125 261.773438 12.859375 223.222656 12.859375 C 214.097656 12.859375 205.050781 12.703125 195.925781 12.703125 C 150.53125 12.703125 105.210938 12.78125 59.816406 12.859375 C 51.300781 12.859375 42.785156 12.703125 34.265625 12.703125 C 28.714844 12.703125 23.089844 12.78125 17.539062 12.9375 C 16.398438 12.9375 15.179688 13.476562 13.890625 13.785156 Z M 13.890625 13.785156 " fill-opacity="1" fill-rule="nonzero"/><g clip-path="url(#d8703942f0)"><path fill="#000000" d="M 3.546875 10.925781 C 6.058594 9.304688 7.199219 7.21875 6.058594 4.128906 C 8.414062 4.980469 10.46875 5.675781 12.75 6.449219 C 12.75 9.304688 12.75 12.316406 12.75 15.253906 C 10.621094 16.027344 8.488281 16.796875 6.210938 17.570312 C 7.046875 14.710938 6.210938 12.394531 3.546875 10.925781 Z M 3.546875 10.925781 " fill-opacity="1" fill-rule="nonzero"/></g><g clip-path="url(#eac8f14765)"><path fill="#000000" d="M 369.0625 4.128906 C 368.074219 7.21875 369.0625 9.304688 371.574219 10.851562 C 368.988281 12.316406 368.378906 14.636719 368.53125 17.414062 C 366.785156 16.796875 365.109375 16.257812 363.511719 15.5625 C 362.980469 15.253906 362.371094 14.402344 362.296875 13.785156 C 362.144531 11.390625 362.222656 8.996094 362.222656 6.523438 C 364.503906 5.753906 366.632812 4.980469 369.0625 4.128906 Z M 369.0625 4.128906 " fill-opacity="1" fill-rule="nonzero"/></g><path fill="#000000" d="M 14.113281 108.4375 C 14.113281 106.507812 14.113281 104.652344 14.113281 102.796875 C 21.335938 104.265625 28.636719 103.417969 35.9375 103.492188 C 43.3125 103.570312 50.6875 103.492188 58.140625 103.492188 C 100.871094 103.492188 143.53125 103.492188 186.265625 103.492188 C 224.816406 103.492188 263.367188 103.492188 301.917969 103.492188 C 319.789062 103.492188 337.582031 103.492188 355.449219 103.417969 C 357.425781 103.417969 359.328125 103.183594 361.457031 103.03125 C 361.457031 104.574219 361.457031 106.429688 361.457031 107.972656 C 354.003906 107.046875 346.476562 107.585938 339.023438 107.511719 C 300.472656 107.433594 262 107.511719 223.445312 107.511719 C 214.320312 107.511719 205.273438 107.355469 196.148438 107.355469 C 150.753906 107.355469 105.433594 107.433594 60.039062 107.511719 C 51.523438 107.511719 43.007812 107.355469 34.492188 107.355469 C 28.941406 107.355469 23.3125 107.433594 17.761719 107.585938 C 16.621094 107.585938 15.40625 108.128906 14.113281 108.4375 Z M 14.113281 108.4375 " fill-opacity="1" fill-rule="nonzero"/><g clip-path="url(#86eb31e276)"><path fill="#000000" d="M 3.773438 105.578125 C 6.28125 103.957031 7.421875 101.871094 6.28125 98.78125 C 8.636719 99.632812 10.691406 100.328125 12.972656 101.097656 C 12.972656 103.957031 12.972656 106.96875 12.972656 109.90625 C 10.84375 110.675781 8.714844 111.449219 6.433594 112.222656 C 7.269531 109.363281 6.433594 107.046875 3.773438 105.578125 Z M 3.773438 105.578125 " fill-opacity="1" fill-rule="nonzero"/></g><g clip-path="url(#f3505b9e45)"><path fill="#000000" d="M 369.289062 98.78125 C 368.300781 101.871094 369.289062 103.957031 371.796875 105.5 C 369.210938 106.96875 368.605469 109.285156 368.757812 112.066406 C 367.007812 111.449219 365.335938 110.910156 363.738281 110.214844 C 363.207031 109.90625 362.597656 109.054688 362.519531 108.4375 C 362.367188 106.042969 362.445312 103.648438 362.445312 101.175781 C 364.726562 100.402344 366.855469 99.632812 369.289062 98.78125 Z M 369.289062 98.78125 " fill-opacity="1" fill-rule="nonzero"/></g></svg>