<svg xmlns="http://www.w3.org/2000/svg" xmlns:xlink="http://www.w3.org/1999/xlink" width="500" zoomAndPan="magnify" viewBox="0 0 375 374.999991" height="500" preserveAspectRatio="xMidYMid meet" version="1.0"><defs><clipPath id="869affdde8"><path d="M 3.734375 3.734375 L 371.234375 3.734375 L 371.234375 371.234375 L 3.734375 371.234375 Z M 3.734375 3.734375 " clip-rule="nonzero"/></clipPath><clipPath id="633b1f4263"><path d="M 73 195 L 252 195 L 252 349.464844 L 73 349.464844 Z M 73 195 " clip-rule="nonzero"/></clipPath><clipPath id="4cabac83ea"><path d="M 123 25.464844 L 302 25.464844 L 302 180 L 123 180 Z M 123 25.464844 " clip-rule="nonzero"/></clipPath><clipPath id="c432fac2aa"><path d="M 162 76 L 349.464844 76 L 349.464844 229 L 162 229 Z M 162 76 " clip-rule="nonzero"/></clipPath><clipPath id="dcb2b11724"><path d="M 25.464844 146 L 213 146 L 213 299 L 25.464844 299 Z M 25.464844 146 " clip-rule="nonzero"/></clipPath></defs><g clip-path="url(#869affdde8)"><path fill="#000000" d="M 371.234375 187.484375 C 371.234375 190.492188 371.160156 193.496094 371.011719 196.5 C 370.863281 199.503906 370.644531 202.5 370.347656 205.496094 C 370.054688 208.488281 369.6875 211.46875 369.246094 214.445312 C 368.804688 217.421875 368.289062 220.382812 367.703125 223.332031 C 367.117188 226.28125 366.457031 229.214844 365.726562 232.132812 C 364.996094 235.046875 364.195312 237.945312 363.320312 240.824219 C 362.449219 243.699219 361.503906 246.554688 360.492188 249.386719 C 359.480469 252.21875 358.398438 255.023438 357.246094 257.800781 C 356.09375 260.578125 354.878906 263.328125 353.589844 266.046875 C 352.304688 268.765625 350.953125 271.449219 349.535156 274.101562 C 348.117188 276.753906 346.636719 279.371094 345.089844 281.949219 C 343.546875 284.527344 341.9375 287.070312 340.265625 289.570312 C 338.59375 292.070312 336.863281 294.527344 335.074219 296.941406 C 333.28125 299.359375 331.433594 301.730469 329.523438 304.054688 C 327.617188 306.378906 325.652344 308.65625 323.632812 310.882812 C 321.613281 313.109375 319.539062 315.289062 317.414062 317.414062 C 315.289062 319.539062 313.109375 321.613281 310.882812 323.632812 C 308.65625 325.652344 306.378906 327.617188 304.054688 329.523438 C 301.730469 331.433594 299.359375 333.28125 296.941406 335.074219 C 294.527344 336.863281 292.070312 338.59375 289.570312 340.265625 C 287.070312 341.9375 284.53125 343.546875 281.949219 345.089844 C 279.371094 346.636719 276.753906 348.117188 274.101562 349.535156 C 271.449219 350.953125 268.765625 352.304688 266.046875 353.589844 C 263.328125 354.878906 260.578125 356.09375 257.800781 357.246094 C 255.023438 358.398438 252.21875 359.480469 249.386719 360.492188 C 246.554688 361.503906 243.699219 362.449219 240.824219 363.320312 C 237.945312 364.195312 235.046875 364.996094 232.132812 365.726562 C 229.214844 366.457031 226.28125 367.117188 223.332031 367.703125 C 220.382812 368.289062 217.421875 368.804688 214.445312 369.246094 C 211.46875 369.6875 208.488281 370.054688 205.496094 370.347656 C 202.5 370.644531 199.503906 370.863281 196.5 371.011719 C 193.496094 371.160156 190.492188 371.234375 187.484375 371.234375 C 184.476562 371.234375 181.472656 371.160156 178.46875 371.011719 C 175.464844 370.863281 172.464844 370.644531 169.472656 370.347656 C 166.480469 370.054688 163.496094 369.6875 160.523438 369.246094 C 157.546875 368.804688 154.585938 368.289062 151.636719 367.703125 C 148.6875 367.117188 145.753906 366.457031 142.835938 365.726562 C 139.917969 364.996094 137.019531 364.195312 134.144531 363.320312 C 131.265625 362.449219 128.410156 361.503906 125.578125 360.492188 C 122.75 359.480469 119.945312 358.398438 117.164062 357.246094 C 114.386719 356.09375 111.640625 354.878906 108.921875 353.589844 C 106.203125 352.304688 103.515625 350.953125 100.863281 349.535156 C 98.210938 348.117188 95.597656 346.636719 93.015625 345.089844 C 90.4375 343.546875 87.898438 341.9375 85.398438 340.265625 C 82.898438 338.59375 80.4375 336.863281 78.023438 335.074219 C 75.609375 333.28125 73.238281 331.433594 70.914062 329.523438 C 68.589844 327.617188 66.3125 325.652344 64.085938 323.632812 C 61.855469 321.613281 59.679688 319.539062 57.550781 317.414062 C 55.425781 315.289062 53.351562 313.109375 51.332031 310.882812 C 49.3125 308.65625 47.351562 306.378906 45.441406 304.054688 C 43.535156 301.730469 41.6875 299.359375 39.894531 296.941406 C 38.101562 294.527344 36.371094 292.070312 34.699219 289.570312 C 33.03125 287.070312 31.421875 284.527344 29.875 281.949219 C 28.328125 279.371094 26.847656 276.753906 25.429688 274.101562 C 24.011719 271.449219 22.660156 268.765625 21.375 266.046875 C 20.089844 263.328125 18.871094 260.578125 17.722656 257.800781 C 16.570312 255.023438 15.488281 252.21875 14.476562 249.386719 C 13.460938 246.554688 12.519531 243.699219 11.644531 240.824219 C 10.773438 237.945312 9.972656 235.046875 9.242188 232.132812 C 8.507812 229.214844 7.851562 226.28125 7.265625 223.332031 C 6.675781 220.382812 6.164062 217.421875 5.722656 214.445312 C 5.28125 211.46875 4.914062 208.488281 4.617188 205.496094 C 4.324219 202.5 4.101562 199.503906 3.953125 196.5 C 3.808594 193.496094 3.734375 190.492188 3.734375 187.484375 C 3.734375 184.476562 3.808594 181.472656 3.953125 178.46875 C 4.101562 175.464844 4.324219 172.464844 4.617188 169.472656 C 4.914062 166.480469 5.28125 163.496094 5.722656 160.523438 C 6.164062 157.546875 6.675781 154.585938 7.265625 151.636719 C 7.851562 148.6875 8.507812 145.753906 9.242188 142.835938 C 9.972656 139.917969 10.773438 137.019531 11.644531 134.144531 C 12.519531 131.265625 13.460938 128.410156 14.476562 125.578125 C 15.488281 122.75 16.570312 119.945312 17.722656 117.164062 C 18.871094 114.386719 20.089844 111.640625 21.375 108.921875 C 22.660156 106.203125 24.011719 103.515625 25.429688 100.863281 C 26.847656 98.210938 28.328125 95.597656 29.875 93.015625 C 31.421875 90.4375 33.03125 87.898438 34.699219 85.398438 C 36.371094 82.898438 38.101562 80.4375 39.894531 78.023438 C 41.6875 75.609375 43.535156 73.238281 45.441406 70.914062 C 47.351562 68.589844 49.3125 66.3125 51.332031 64.085938 C 53.351562 61.855469 55.425781 59.679688 57.550781 57.550781 C 59.679688 55.425781 61.855469 53.351562 64.085938 51.332031 C 66.3125 49.3125 68.589844 47.351562 70.914062 45.441406 C 73.238281 43.535156 75.609375 41.6875 78.023438 39.894531 C 80.4375 38.101562 82.898438 36.371094 85.398438 34.699219 C 87.898438 33.03125 90.4375 31.421875 93.015625 29.875 C 95.597656 28.328125 98.210938 26.847656 100.863281 25.429688 C 103.515625 24.011719 106.203125 22.660156 108.921875 21.375 C 111.640625 20.089844 114.386719 18.871094 117.164062 17.722656 C 119.945312 16.570312 122.75 15.488281 125.578125 14.476562 C 128.410156 13.460938 131.265625 12.519531 134.144531 11.644531 C 137.019531 10.773438 139.917969 9.972656 142.835938 9.242188 C 145.753906 8.507812 148.6875 7.851562 151.636719 7.265625 C 154.585938 6.675781 157.546875 6.164062 160.523438 5.722656 C 163.496094 5.28125 166.480469 4.914062 169.472656 4.617188 C 172.464844 4.324219 175.464844 4.101562 178.46875 3.953125 C 181.472656 3.808594 184.476562 3.734375 187.484375 3.734375 C 190.492188 3.734375 193.496094 3.808594 196.5 3.953125 C 199.503906 4.101562 202.5 4.324219 205.496094 4.617188 C 208.488281 4.914062 211.46875 5.28125 214.445312 5.722656 C 217.421875 6.164062 220.382812 6.675781 223.332031 7.265625 C 226.28125 7.851562 229.214844 8.507812 232.132812 9.242188 C 235.046875 9.972656 237.945312 10.773438 240.824219 11.644531 C 243.699219 12.519531 246.554688 13.460938 249.386719 14.476562 C 252.21875 15.488281 255.023438 16.570312 257.800781 17.722656 C 260.578125 18.871094 263.328125 20.089844 266.046875 21.375 C 268.765625 22.660156 271.449219 24.011719 274.101562 25.429688 C 276.753906 26.847656 279.371094 28.328125 281.949219 29.875 C 284.53125 31.421875 287.070312 33.03125 289.570312 34.699219 C 292.070312 36.371094 294.527344 38.101562 296.941406 39.894531 C 299.359375 41.6875 301.730469 43.535156 304.054688 45.441406 C 306.378906 47.351562 308.65625 49.3125 310.882812 51.332031 C 313.109375 53.351562 315.289062 55.425781 317.414062 57.550781 C 319.539062 59.679688 321.613281 61.855469 323.632812 64.085938 C 325.652344 66.3125 327.617188 68.589844 329.523438 70.914062 C 331.433594 73.238281 333.28125 75.609375 335.074219 78.023438 C 336.863281 80.4375 338.59375 82.898438 340.265625 85.398438 C 341.9375 87.898438 343.546875 90.4375 345.089844 93.015625 C 346.636719 95.597656 348.117188 98.210938 349.535156 100.863281 C 350.953125 103.515625 352.304688 106.203125 353.589844 108.921875 C 354.878906 111.640625 356.09375 114.386719 357.246094 117.164062 C 358.398438 119.945312 359.480469 122.75 360.492188 125.578125 C 361.503906 128.410156 362.449219 131.265625 363.320312 134.144531 C 364.195312 137.019531 364.996094 139.917969 365.726562 142.835938 C 366.457031 145.753906 367.117188 148.6875 367.703125 151.636719 C 368.289062 154.585938 368.804688 157.546875 369.246094 160.523438 C 369.6875 163.496094 370.054688 166.480469 370.347656 169.472656 C 370.644531 172.464844 370.863281 175.464844 371.011719 178.46875 C 371.160156 181.472656 371.234375 184.476562 371.234375 187.484375 Z M 371.234375 187.484375 " fill-opacity="1" fill-rule="nonzero"/></g><g clip-path="url(#633b1f4263)"><path fill="#ffffff" d="M 249.105469 260.488281 C 251.679688 233.492188 251.246094 208.117188 250.773438 195.601562 L 221.652344 246.035156 L 221.695312 246.101562 C 221.6875 246.105469 221.640625 246.136719 221.566406 246.1875 L 221.464844 246.359375 L 221.304688 246.359375 C 217.722656 248.734375 189.996094 266.875 157.171875 281.882812 C 136.53125 291.320312 117.914062 297.703125 101.839844 300.855469 C 91.460938 302.890625 82.101562 303.574219 73.828125 302.917969 C 103.070312 331.695312 143.191406 349.453125 187.457031 349.453125 C 199.617188 349.453125 211.464844 348.109375 222.859375 345.570312 C 228.851562 338.496094 233.957031 328.84375 238.117188 316.707031 C 243.296875 301.59375 246.996094 282.675781 249.109375 260.488281 Z M 249.105469 260.488281 " fill-opacity="1" fill-rule="nonzero"/></g><g clip-path="url(#4cabac83ea)"><path fill="#ffffff" d="M 153.445312 128.546875 L 153.605469 128.546875 C 157.191406 126.171875 184.914062 108.035156 217.742188 93.027344 C 238.382812 83.589844 256.996094 77.207031 273.070312 74.054688 C 283.453125 72.019531 292.808594 71.335938 301.082031 71.992188 C 271.84375 43.214844 231.722656 25.457031 187.453125 25.457031 C 175.292969 25.457031 163.449219 26.796875 152.054688 29.339844 C 146.0625 36.410156 140.953125 46.066406 136.796875 58.199219 C 131.617188 73.316406 127.917969 92.234375 125.804688 114.421875 C 123.234375 141.414062 123.664062 166.792969 124.136719 179.304688 L 153.257812 128.871094 L 153.214844 128.808594 C 153.226562 128.800781 153.269531 128.769531 153.34375 128.722656 Z M 153.445312 128.546875 " fill-opacity="1" fill-rule="nonzero"/></g><g clip-path="url(#c432fac2aa)"><path fill="#ffffff" d="M 274.074219 78.957031 C 258.394531 82.03125 240.164062 88.285156 219.890625 97.550781 C 195.226562 108.820312 173.46875 121.882812 162.863281 128.550781 L 221.101562 128.550781 L 221.136719 128.480469 C 221.144531 128.488281 221.195312 128.511719 221.273438 128.550781 L 221.472656 128.550781 L 221.554688 128.6875 C 225.40625 130.605469 254.976562 145.546875 284.386719 166.472656 C 302.878906 179.628906 317.714844 192.558594 328.480469 204.902344 C 335.453125 212.894531 340.730469 220.675781 344.300781 228.1875 C 347.671875 215.171875 349.464844 201.523438 349.464844 187.457031 C 349.464844 145.125 333.226562 106.589844 306.644531 77.730469 C 297.535156 76.089844 286.636719 76.496094 274.074219 78.957031 Z M 274.074219 78.957031 " fill-opacity="1" fill-rule="nonzero"/></g><path fill="#ffffff" d="M 324.71875 208.210938 C 314.21875 196.167969 299.6875 183.507812 281.527344 170.582031 C 259.433594 154.855469 237.242188 142.546875 226.167969 136.695312 L 255.289062 187.128906 L 255.363281 187.125 C 255.363281 187.136719 255.367188 187.191406 255.375 187.28125 L 255.472656 187.453125 L 255.394531 187.59375 C 255.660156 191.886719 257.507812 224.964844 254.089844 260.898438 C 251.941406 283.488281 248.160156 302.800781 242.855469 318.300781 C 239.417969 328.335938 235.320312 336.796875 230.597656 343.640625 C 283.617188 329.027344 325.742188 288.144531 342.09375 235.871094 C 338.964844 227.140625 333.15625 217.886719 324.71875 208.210938 Z M 324.71875 208.210938 " fill-opacity="1" fill-rule="nonzero"/><g clip-path="url(#dcb2b11724)"><path fill="#ffffff" d="M 100.847656 295.945312 C 116.527344 292.871094 134.757812 286.617188 155.03125 277.355469 C 179.695312 266.082031 201.453125 253.019531 212.058594 246.351562 L 153.820312 246.351562 L 153.785156 246.421875 C 153.777344 246.417969 153.726562 246.394531 153.648438 246.351562 L 153.445312 246.351562 L 153.367188 246.214844 C 149.515625 244.296875 119.945312 229.359375 90.535156 208.433594 C 72.042969 195.273438 57.207031 182.34375 46.441406 170 C 39.46875 162.007812 34.191406 154.226562 30.621094 146.714844 C 27.25 159.730469 25.457031 173.378906 25.457031 187.445312 C 25.457031 229.777344 41.695312 268.3125 68.277344 297.171875 C 77.386719 298.8125 88.28125 298.40625 100.847656 295.945312 Z M 100.847656 295.945312 " fill-opacity="1" fill-rule="nonzero"/></g><path fill="#ffffff" d="M 50.1875 166.699219 C 60.691406 178.742188 75.222656 191.40625 93.382812 204.328125 C 115.476562 220.054688 137.667969 232.367188 148.742188 238.214844 L 119.621094 187.78125 L 119.546875 187.785156 C 119.546875 187.773438 119.542969 187.722656 119.535156 187.632812 L 119.4375 187.457031 L 119.515625 187.320312 C 119.25 183.027344 117.402344 149.949219 120.820312 114.015625 C 122.96875 91.421875 126.75 72.109375 132.054688 56.613281 C 135.492188 46.578125 139.589844 38.117188 144.3125 31.269531 C 91.292969 45.882812 49.167969 86.765625 32.816406 139.042969 C 35.945312 147.769531 41.753906 157.027344 50.1875 166.699219 Z M 50.1875 166.699219 " fill-opacity="1" fill-rule="nonzero"/></svg>